<?xml version="1.0" encoding="utf-8"?>
<!-- Generator: Adobe Illustrator 21.0.0, SVG Export Plug-In . SVG Version: 6.00 Build 0)  -->
<svg version="1.1" id="Capa_1" xmlns="http://www.w3.org/2000/svg" xmlns:xlink="http://www.w3.org/1999/xlink" x="0px" y="0px"
	 viewBox="0 0 464 464" style="enable-background:new 0 0 464 464;" xml:space="preserve">
<style type="text/css">
	.st0{fill:#FCF1CE;}
	.st1{fill:#F9DB7B;}
	.st2{fill:#666666;}
	.st3{fill:#4D4D4D;}
</style>
<path class="st0" d="M441.7,199.3l20.7-12.4c2.1-1.3,2.1-4.4,0-5.6l-20.7-12.4c-10.3-6.2-13-19.8-5.9-29.4l14.4-19.4
	c1.5-2,0.3-4.8-2.2-5.2l-23.9-3.6c-11.8-1.8-19.6-13.3-16.7-25l5.9-23.5c0.6-2.4-1.6-4.6-4-4l-23.5,5.9c-11.6,2.9-23.2-4.8-25-16.7
	l-3.6-23.9c-0.4-2.5-3.2-3.6-5.2-2.2l-19.4,14.4c-9.6,7.1-23.3,4.4-29.4-5.9L290.8,9.6c-1.3-2.1-4.4-2.1-5.6,0l-12.4,20.7
	c-6.2,10.3-19.8,13-29.4,5.9l-19.4-14.4c-2-1.5-4.8-0.3-5.2,2.2l-3.6,23.9c-1.8,11.8-13.3,19.6-25,16.7l-23.5-5.9
	c-2.4-0.6-4.6,1.6-4,4l5.9,23.5c2.9,11.6-4.8,23.2-16.7,25l-23.9,3.6c-2.4,0.4-3.6,3.2-2.2,5.2l14.4,19.4c7.1,9.6,4.4,23.3-5.9,29.4
	l-20.7,12.4c-2.1,1.3-2.1,4.4,0,5.6l20.7,12.4c10.3,6.2,13,19.8,5.9,29.4l-14.4,19.4c-1.5,2-0.3,4.8,2.2,5.2l23.9,3.6
	c11.8,1.8,19.6,13.3,16.7,25l-5.9,23.5c-0.6,2.4,1.6,4.6,4,4l23.5-5.9c11.6-2.9,23.2,4.8,25,16.7l3.6,23.9c0.4,2.5,3.2,3.6,5.2,2.2
	l19.4-14.4c9.6-7.1,23.3-4.4,29.4,5.9l12.4,20.7c1.3,2.1,4.4,2.1,5.6,0l12.4-20.7c6.2-10.3,19.8-13,29.4-5.9l19.4,14.4
	c2,1.5,4.8,0.3,5.2-2.2l3.6-23.9c1.8-11.8,13.3-19.6,25-16.7l23.5,5.9c2.4,0.6,4.6-1.6,4-4l-5.9-23.5c-2.9-11.6,4.8-23.2,16.7-25
	l23.9-3.6c2.5-0.4,3.6-3.2,2.2-5.2l-14.4-19.4C428.7,219.1,431.4,205.4,441.7,199.3z"/>
<circle class="st1" cx="288" cy="184" r="110.2"/>
<path class="st2" d="M352,264c-5.6,0-11,0.6-16.4,1.5C313.7,226.4,272,200,224,200s-89.7,26.4-111.6,65.5
	c-5.3-0.9-10.8-1.5-16.4-1.5c-53,0-96,43-96,96s43,96,96,96h256c53,0,96-43,96-96S405,264,352,264z"/>
<path class="st3" d="M352,264c-5.6,0-11,0.6-16.4,1.5c-0.1-0.2-0.2-0.3-0.3-0.5c10.6,18.6,16.7,40.1,16.7,63
	c0,70.7-57.3,128-128,128h128c53,0,96-43,96-96S405,264,352,264z"/>
</svg>
